<?xml version="1.0" encoding="UTF-8" standalone="no"?>
<!-- Created with Inkscape (http://www.inkscape.org/) -->

<svg
   width="512"
   height="512"
   viewBox="0 0 7.1111111 7.1111111"
   version="1.1"
   id="svg1"
   xml:space="preserve"
   xmlns:xlink="http://www.w3.org/1999/xlink"
   xmlns="http://www.w3.org/2000/svg"
   xmlns:svg="http://www.w3.org/2000/svg"><defs
     id="defs1"><linearGradient
       id="linearGradient15"><stop
         style="stop-color:#a6a6a6;stop-opacity:1;"
         offset="0"
         id="stop15" /><stop
         style="stop-color:#d9d9d9;stop-opacity:1;"
         offset="1"
         id="stop16" /></linearGradient><linearGradient
       id="linearGradient2"><stop
         style="stop-color:#2e2e2e;stop-opacity:1;"
         offset="0"
         id="stop2" /><stop
         style="stop-color:#1a1a1a;stop-opacity:1;"
         offset="1"
         id="stop3" /></linearGradient><linearGradient
       xlink:href="#linearGradient2"
       id="linearGradient3"
       x1="0.72805381"
       y1="1.3401859"
       x2="6.5908666"
       y2="5.3074446"
       gradientUnits="userSpaceOnUse" /><linearGradient
       xlink:href="#linearGradient15"
       id="linearGradient16"
       x1="2.374846"
       y1="4.2292032"
       x2="2.9911561"
       y2="3.472085"
       gradientUnits="userSpaceOnUse"
       gradientTransform="matrix(1.6303494,0,0,1.6303494,-1.7597787,-2.3128258)" /></defs><g
     id="layer1"
     style="display:inline"><path
       style="display:inline;fill:url(#linearGradient3);stroke:none;stroke-width:0.208136;stroke-dasharray:none;stroke-opacity:1"
       id="rect1"
       width="5.9066772"
       height="4.0257802"
       x="0.69296217"
       y="1.2869297"
       ry="0.24064648"
       transform="matrix(1.0698095,0,0,1.1733873,-0.34529168,-0.31641113)"
       d="M 0.93360865,1.2869297 H 6.3589929 c 0.1333182,0 0.2406465,0.1073284 0.2406465,0.2406465 v 3.5444872 c 0,0.1333182 -0.1073283,0.2406465 -0.2406465,0.2406465 H 0.93360865 c -0.13331815,0 -0.24064648,-0.1073283 -0.24064648,-0.2406465 V 1.5275762 c 0,-0.1333181 0.10732833,-0.2406465 0.24064648,-0.2406465 z" /><path
       id="rect1-3"
       style="display:inline;fill:#696969;fill-opacity:0.35;stroke:none;stroke-width:0.208136;stroke-dasharray:none;stroke-opacity:1"
       d="m 0.93360056,1.2869313 c -0.13331801,0 -0.24063417,0.1073206 -0.24063417,0.2406386 v 2.2119603 a 2.6963427,2.4583298 0 0 0 0.0238098,0.00155 2.6963427,2.4583298 0 0 0 2.69601561,-2.4541478 z"
       transform="matrix(1.0698095,0,0,1.1733873,-0.34529168,-0.31641112)" /><path
       id="path3"
       style="fill:#696969;fill-opacity:0.4;stroke:none;stroke-width:0.315352;stroke-dasharray:none;stroke-opacity:1"
       d="m 0.65348307,1.1936578 c -0.14262488,0 -0.25743272,0.1259286 -0.25743272,0.2823622 v 1.4944661 a 1.7720581,1.7720581 0 0 0 0.0136447,9.766e-4 1.7720581,1.7720581 0 0 0 1.77205405,-1.7720812 1.7720581,1.7720581 0 0 0 -1.356e-4,-0.00572 z" /><path
       id="path1"
       d="M 1.7959828,2.4621252 2.1119988,4.5983058 2.5493854,4.0344162 3.0304895,4.8194294 3.3360592,4.6321505 2.8549551,3.847137 3.5559752,3.7133881 Z"
       style="display:inline;fill:url(#linearGradient16);fill-rule:nonzero;stroke:none;stroke-width:0.0855936;stroke-linecap:round;stroke-linejoin:round;stroke-miterlimit:10;stroke-dasharray:none;stroke-opacity:1" /></g></svg>
